<svg xmlns="http://www.w3.org/2000/svg" width="32" height="32" viewBox="0 0 32 32">
  <circle cx="16" cy="16" r="15" fill="#79cdc2"/>
  <g fill="#ffffff" transform="translate(8, 8) scale(0.4)">
    <path d="m98.781 27.844h-75.594l-0.03125-4.875c-0.046875-3.0781-1.25-5.9688-3.4219-8.1406-2.125-2.1094-5.0938-3.3281-8.1562-3.3281-6.375 0-11.578 5.1719-11.578 11.531v53.766c0 6.4531 5.2656 11.703 11.703 11.703h87.078c0.6875 0 1.2188-0.5625 1.2188-1.2188v-58.203c0-0.6875-0.54688-1.2344-1.2188-1.2344zm-1.2344 58.203h-85.844c-5.0938 0-9.2344-4.1719-9.2344-9.25 0-0.79688 0.10938-1.6406 0.34375-2.4688 0.8125-3.1094 3.3281-5.6562 6.4531-6.4531 0.8125-0.20312 1.625-0.3125 2.4531-0.3125 2.0781 0 4.0312 0.67188 5.6719 1.9375 2.25 1.75 3.5625 4.3594 3.5938 7.2969 0 0.65625 0.51562 1.1562 1.2188 1.2188 0.6875 0 1.2188-0.54688 1.2188-1.3281l-0.20312-46.391h74.344v55.75z"/>
    <path d="m52.984 44.188h-1.1406c-0.23438-0.75-0.53125-1.4688-0.89062-2.1562l0.8125-0.8125c0.53125-0.53125 0.53125-1.3906 0-1.9219l-2.5469-2.5469c-0.25-0.25-0.59375-0.39062-0.9375-0.39062-0.35938 0-0.70312 0.14062-0.95312 0.40625l-0.8125 0.8125c-0.6875-0.375-1.4062-0.67188-2.1719-0.89062v-1.1406c0-0.75-0.60938-1.3438-1.3438-1.3438h-3.5938c-0.75 0-1.3594 0.60938-1.3594 1.3438v1.1406c-0.75 0.23438-1.4688 0.53125-2.1562 0.89062l-0.82812-0.8125c-0.25-0.26562-0.59375-0.40625-0.9375-0.40625-0.375 0-0.71875 0.14062-0.95312 0.40625l-2.5312 2.5312c-0.53125 0.53125-0.53125 1.3906 0 1.9219l0.8125 0.8125c-0.375 0.6875-0.6875 1.4062-0.89062 2.1562h-1.1406c-0.75 0-1.3438 0.625-1.3438 1.3594v3.5938c0 0.75 0.60938 1.3594 1.3438 1.3594h1.1406c0.21875 0.75 0.53125 1.4688 0.89062 2.1562l-0.8125 0.8125c-0.53125 0.53125-0.53125 1.3906 0 1.9219l2.5312 2.5312c0.25 0.26562 0.59375 0.40625 0.95312 0.40625s0.70312-0.14062 0.9375-0.40625l0.82812-0.8125c0.6875 0.375 1.4062 0.67188 2.1562 0.89062v1.1406c0 0.75 0.625 1.3438 1.3594 1.3438h3.5938c0.75 0 1.3438-0.60938 1.3438-1.3438v-1.1406c0.76562-0.23438 1.4844-0.53125 2.1719-0.89062l0.8125 0.8125c0.26562 0.26562 0.60938 0.40625 0.95312 0.40625 0.35938 0 0.70312-0.14062 0.95312-0.40625l2.5312-2.5312c0.26562-0.25 0.40625-0.59375 0.40625-0.95312s-0.14062-0.70312-0.40625-0.95312l-0.82812-0.82812c0.375-0.6875 0.67188-1.4062 0.875-2.1562h1.1562c0.75 0 1.3438-0.625 1.3438-1.3594v-3.5938c0.015625-0.73438-0.57812-1.3594-1.3281-1.3594zm-18.375 3.1719c0-3.625 2.9375-6.5625 6.5625-6.5625s6.5625 2.9375 6.5625 6.5625-2.9375 6.5625-6.5625 6.5625-6.5625-2.9531-6.5625-6.5625z"/>
  </g>
</svg>