<svg xmlns="http://www.w3.org/2000/svg" xmlns:xlink="http://www.w3.org/1999/xlink" width="400" height="400" viewBox="0 0 400 400"><g data-name="icon" fill="#79cdc2" data="id:7879195" transform="translate(20.001273729943616, 19.998551175104545) scale(3.600007141127447)">
  
 <path d="m98.781 27.844h-75.594l-0.03125-4.875c-0.046875-3.0781-1.25-5.9688-3.4219-8.1406-2.125-2.1094-5.0938-3.3281-8.1562-3.3281-6.375 0-11.578 5.1719-11.578 11.531v53.766c0 6.4531 5.2656 11.703 11.703 11.703h87.078c0.6875 0 1.2188-0.5625 1.2188-1.2188v-58.203c0-0.6875-0.54688-1.2344-1.2188-1.2344zm-1.2344 58.203h-85.844c-5.0938 0-9.2344-4.1719-9.2344-9.25 0-0.79688 0.10938-1.6406 0.34375-2.4688 0.8125-3.1094 3.3281-5.6562 6.4531-6.4531 0.8125-0.20312 1.625-0.3125 2.4531-0.3125 2.0781 0 4.0312 0.67188 5.6719 1.9375 2.25 1.75 3.5625 4.3594 3.5938 7.2969 0 0.65625 0.51562 1.1562 1.2188 1.2188 0.6875 0 1.2188-0.54688 1.2188-1.3281l-0.20312-46.391h74.344v55.75z"/>
 <path d="m52.984 44.188h-1.1406c-0.23438-0.75-0.53125-1.4688-0.89062-2.1562l0.8125-0.8125c0.53125-0.53125 0.53125-1.3906 0-1.9219l-2.5469-2.5469c-0.25-0.25-0.59375-0.39062-0.9375-0.39062-0.35938 0-0.70312 0.14062-0.95312 0.40625l-0.8125 0.8125c-0.6875-0.375-1.4062-0.67188-2.1719-0.89062v-1.1406c0-0.75-0.60938-1.3438-1.3438-1.3438h-3.5938c-0.75 0-1.3594 0.60938-1.3594 1.3438v1.1406c-0.75 0.23438-1.4688 0.53125-2.1562 0.89062l-0.82812-0.8125c-0.25-0.26562-0.59375-0.40625-0.9375-0.40625-0.375 0-0.71875 0.14062-0.95312 0.40625l-2.5312 2.5312c-0.53125 0.53125-0.53125 1.3906 0 1.9219l0.8125 0.8125c-0.375 0.6875-0.6875 1.4062-0.89062 2.1562h-1.1406c-0.75 0-1.3438 0.625-1.3438 1.3594v3.5938c0 0.75 0.60938 1.3594 1.3438 1.3594h1.1406c0.21875 0.75 0.53125 1.4688 0.89062 2.1562l-0.8125 0.8125c-0.53125 0.53125-0.53125 1.3906 0 1.9219l2.5312 2.5312c0.25 0.26562 0.59375 0.40625 0.95312 0.40625s0.70312-0.14062 0.9375-0.40625l0.82812-0.8125c0.6875 0.375 1.4062 0.67188 2.1562 0.89062v1.1406c0 0.75 0.625 1.3438 1.3594 1.3438h3.5938c0.75 0 1.3438-0.60938 1.3438-1.3438v-1.1406c0.76562-0.23438 1.4844-0.53125 2.1719-0.89062l0.8125 0.8125c0.26562 0.26562 0.60938 0.40625 0.95312 0.40625 0.35938 0 0.70312-0.14062 0.95312-0.40625l2.5312-2.5312c0.26562-0.25 0.40625-0.59375 0.40625-0.95312s-0.14062-0.70312-0.40625-0.95312l-0.82812-0.82812c0.375-0.6875 0.67188-1.4062 0.875-2.1562h1.1562c0.75 0 1.3438-0.625 1.3438-1.3594v-3.5938c0.015625-0.73438-0.57812-1.3594-1.3281-1.3594zm-18.375 3.1719c0-3.625 2.9375-6.5625 6.5625-6.5625s6.5625 2.9375 6.5625 6.5625-2.9375 6.5625-6.5625 6.5625-6.5625-2.9531-6.5625-6.5625z"/>
 <path d="m89.203 68.094-2.9844-8.9531c0.375-0.078125 0.73438-0.15625 1.0938-0.25 0.65625-0.17188 1.0469-0.84375 0.875-1.4844-0.125-0.54688-0.625-0.92188-1.1875-0.92188-0.09375 0-0.1875 0.015625-0.29688 0.03125-0.42188 0.10938-0.84375 0.20312-1.2812 0.29688l-2.5156-7.5625c1.375-1.125 2.1562-2.7656 2.1562-4.5469 0-1.7969-0.82812-3.5156-2.2656-4.625v-2.2188c0-2.0156-1.6406-3.6562-3.6719-3.6562-2.0156 0-3.6562 1.6406-3.6562 3.6562v2.2188c-1.4219 1.1094-2.2656 2.8281-2.2656 4.625 0 1.9219 0.90625 3.6875 2.4688 4.7969l-2.5 7.4219c-0.54688-0.10938-1.0781-0.23438-1.625-0.39062-0.09375-0.015625-0.20312-0.03125-0.3125-0.03125-0.5625 0-1.0312 0.375-1.1875 0.90625-0.17188 0.65625 0.23438 1.3281 0.875 1.5 0.48438 0.125 0.96875 0.23438 1.4531 0.34375l-2.9688 8.8594c-0.20312 0.64062 0.14062 1.3281 0.79688 1.5469 0.125 0.046875 0.25 0.0625 0.39062 0.0625 0.53125 0 0.98438-0.34375 1.1562-0.82812l3.0938-9.2031c1.4062 0.1875 2.8125 0.28125 4.1719 0.28125 1.5 0 3.0938-0.125 4.7344-0.35938l3.1094 9.2812c0.17188 0.5 0.64062 0.82812 1.1562 0.82812 0.125 0 0.26562-0.015625 0.39062-0.0625 0.6875-0.23438 1.0156-0.92188 0.79688-1.5625zm-11.266-30.25c0-0.67188 0.53125-1.2031 1.1875-1.2031 0.67188 0 1.2031 0.54688 1.2031 1.2031v1.0625c-0.42188-0.09375-0.8125-0.14062-1.2031-0.14062s-0.78125 0.046875-1.1875 0.14062zm1.0625 19.641c-1.125 0-2.25-0.0625-3.3438-0.1875l2.2969-6.8125c0.42188 0.09375 0.8125 0.14062 1.1875 0.14062 0.51562 0 1.0312-0.078125 1.5781-0.23438l2.2812 6.8281c-1.3594 0.17188-2.6875 0.26562-4 0.26562z"/>
 <path d="m76.656 73.438h-37.766l-0.0625 0.015625-0.125 0.015625-10.422 3.2656c-0.51562 0.15625-0.84375 0.64062-0.84375 1.1562 0 0.54688 0.34375 1.0156 0.84375 1.1719l10.344 3.25c0.125 0.03125 0.25 0.046875 0.375 0.046875h37.656c2.4688 0 4.4688-2 4.4688-4.4688 0-2.4531-2-4.4531-4.4688-4.4531zm-3.7812 6.4844h-32.656v-4.0469h32.656z"/>

  </g></svg>